<?xml version="1.0" encoding="UTF-8" standalone="no"?>
<svg width="20px" height="20px" viewBox="0 0 20 20" version="1.1" xmlns="http://www.w3.org/2000/svg" xmlns:xlink="http://www.w3.org/1999/xlink">
    <!-- Generator: Sketch 3.8.3 (29802) - http://www.bohemiancoding.com/sketch -->
    <title>alarm-bell</title>
    <desc>Created with Sketch.</desc>
    <defs></defs>
    <g id="Page-1" stroke="none" stroke-width="1" fill="none" fill-rule="evenodd">
        <g id="Symphony-Dashboard" transform="translate(-683.000000, -25.000000)" fill="#FFFFFF">
            <g id="Group-3" transform="translate(683.000000, 25.000000)">
                <g id="alarm-bell">
                    <g id="Capa_1">
                        <g id="Group">
                            <path d="M8.80529412,19.485541 C9.14352941,19.8248852 9.53643791,19.9889836 9.99454248,19.9889836 C10.4638235,19.9889836 10.850915,19.8194754 11.1730719,19.485541 C11.4947712,19.1517705 11.6639869,18.7629508 11.6639869,18.3033443 L8.31437908,18.3033443 C8.31437908,18.7629508 8.47800654,19.1569508 8.80529412,19.485541 L8.80529412,19.485541 Z" id="Shape"></path>
                            <path d="M19.890817,16.7596721 C19.1094118,15.6039344 18.5221242,14.3638689 18.1233987,13.059541 C17.7255882,11.7584918 17.3712745,9.87390164 17.0540196,7.41104918 C16.8694444,5.97688525 16.2842484,4.76695082 15.6355229,3.98462295 C15.3131373,3.59554098 14.9455882,3.24360656 14.5226144,2.93370492 C13.6909477,2.32419672 13.0168301,2.036 12.2312092,1.80619672 C12.1222876,1.29170492 11.8583333,0.867377049 11.434902,0.52547541 C11.0180065,0.188721311 10.5401307,0.0109836066 9.9945098,0.0109836066 C9.4598366,0.0109836066 8.97986928,0.186131148 8.56529412,0.52547541 C8.1504902,0.864786885 7.88862745,1.29170492 7.7796732,1.80619672 C6.99405229,2.036 6.31624183,2.31904918 5.47732026,2.93370492 C5.06160131,3.23845902 4.69150327,3.59016393 4.36444444,3.98462295 C3.72039216,4.76160656 3.14169935,5.97691803 2.95689542,7.41104918 C2.6398366,9.87390164 2.27555556,11.7552459 1.87683007,13.059541 C1.47901961,14.3605902 0.896862745,15.6006557 0.120098039,16.7596721 C0.0458496732,16.8706557 0,16.9784918 0,17.0990164 C0,17.1975738 0.0207189542,17.2858689 0.0763398693,17.3837377 C0.195294118,17.5924918 0.371045752,17.7011148 0.611013072,17.7011148 L19.399902,17.7011148 C19.639902,17.7011148 19.8144771,17.5916066 19.9345425,17.3837377 C19.9780719,17.2851803 19.9999673,17.186623 19.9999673,17.0880656 C20,16.967541 19.9606536,16.8628852 19.890817,16.7596721 L19.890817,16.7596721 Z M1.7022549,16.4859672 C2.35679739,15.358459 2.85352941,14.1202623 3.19712418,12.7967869 C3.54114379,11.4710164 3.85352941,9.7195082 4.1570915,7.56422951 C4.42104575,5.69104918 5.26882353,4.51403279 6.32836601,3.80944262 C7.08022876,3.30967213 7.72359477,3.04809836 8.47800654,2.87904918 C8.74941176,2.81809836 8.92539216,2.57265574 8.92539216,2.29895082 L8.92539216,2.27701639 C8.92539216,1.69596721 9.41630719,1.22609836 9.9945098,1.22609836 C10.5946078,1.22609836 11.0638562,1.69691803 11.0638562,2.27701639 L11.0638562,2.29895082 C11.0638562,2.57265574 11.2577778,2.81157377 11.5331046,2.87904918 C12.2838235,3.06331148 12.9376471,3.29918033 13.6716013,3.80944262 C14.0396405,4.06540984 14.365719,4.34937705 14.6427451,4.67419672 C15.205817,5.33465574 15.6778758,6.34934426 15.8429412,7.56419672 C16.1359804,9.72088525 16.4539542,11.4612131 16.8031046,12.7858033 C17.1522876,14.1103934 17.6541176,15.3474754 18.3089216,16.4859344 L1.7022549,16.4859344 L1.7022549,16.4859672 Z" id="Shape"></path>
                        </g>
                    </g>
                </g>
            </g>
        </g>
    </g>
</svg>