<?xml version="1.0" encoding="UTF-8" standalone="no"?>
<svg width="39px" height="29px" viewBox="0 0 39 29" version="1.1" xmlns="http://www.w3.org/2000/svg" xmlns:xlink="http://www.w3.org/1999/xlink">
    <!-- Generator: Sketch 3.8.3 (29802) - http://www.bohemiancoding.com/sketch -->
    <title>cloud-and-sun</title>
    <desc>Created with Sketch.</desc>
    <defs></defs>
    <g id="Page-1" stroke="none" stroke-width="1" fill="none" fill-rule="evenodd">
        <g id="Symphony-Dashboard" transform="translate(-32.000000, -106.000000)" fill="#3A3A3A">
            <g id="cloud-and-sun" transform="translate(32.000000, 106.000000)">
                <g id="Capa_1">
                    <g id="Cloud__x2B__Sun">
                        <path d="M33.5785412,16.9391622 C32.8763118,11.7240213 29.4846118,7.91322074 24.1179059,7.91322074 C19.6251824,7.91322074 17.1369059,10.581992 15.6040529,14.7251356 C15.0439824,14.5904707 14.4683118,14.5222899 13.8874412,14.5222899 C9.87327059,14.5222899 6.61340588,17.9675824 6.61340588,21.9218404 C6.61340588,25.7046436 9.75535294,28.6987394 13.6152059,28.9261117 L32.8710353,28.9261117 C36.2176176,28.9261117 38.9989294,26.0929043 38.9989294,22.7963138 C38.9972471,19.7461463 36.6338471,17.2609388 33.5785412,16.9391622 L33.5785412,16.9391622 Z M32.8711118,27.175391 L13.6152059,27.175391 C10.8286941,27.0110319 8.36297647,24.6709787 8.36297647,21.9217633 C8.36297647,19.0483723 10.9691706,16.47925 13.8874412,16.47925 C14.5706294,16.47925 15.2399765,16.6104441 15.8798059,16.8640399 L16.9357882,17.2872394 L17.2184235,16.2046755 C18.2068059,12.4200984 20.1558118,9.66386436 24.1179059,9.66386436 C28.7719059,9.66386436 31.4665,13.3679973 31.6745765,17.9535452 L31.7196941,18.9486463 L32.9265529,18.8629574 C35.1772353,18.8629574 37.2459176,20.580359 37.2459176,22.7979335 C37.2476765,25.015508 35.1217941,27.175391 32.8711118,27.175391 L32.8711118,27.175391 Z M14.0712765,6.58407979 C15.5919706,6.58407979 17.0017059,7.04052128 18.2016059,7.79953457 C18.7200765,7.41474468 19.2801471,7.09127128 19.8957353,6.84114628 C18.2831235,5.58897872 16.2647588,4.83521011 14.0695941,4.83521011 C8.81912353,4.83521011 4.54655882,9.10947074 4.54655882,14.3613245 C4.54655882,15.7394415 4.84655294,17.0458298 5.37542353,18.2298165 C5.66501765,17.4988005 6.06901176,16.8341915 6.54932353,16.2221064 C6.40020588,15.6222074 6.29964706,15.0048777 6.29964706,14.3613245 C6.29957059,10.0731037 9.78487059,6.58407979 14.0712765,6.58407979 L14.0712765,6.58407979 Z M14.1423176,3.01985638 C14.6312706,3.01985638 15.1081412,3.06705851 15.5780529,3.1370133 L15.6768529,3.1370133 L14.1422412,0.072962766 L12.6059471,3.1370133 L12.7047471,3.1370133 C13.1748118,3.06883245 13.6516059,3.01985638 14.1423176,3.01985638 L14.1423176,3.01985638 Z M3.06394706,15.8916144 L3.06394706,15.7919654 C2.99458824,15.3214867 2.94778824,14.8440665 2.94778824,14.3561569 C2.94778824,13.8664734 2.99458824,13.39075 3.06394706,12.9203484 L3.06394706,12.8206995 L0,14.3560798 L3.06394706,15.8916144 L3.06394706,15.8916144 Z M4.85167647,8.01641755 C5.13431176,7.63517553 5.43774706,7.26442287 5.78454118,6.91811968 C6.12957647,6.57181649 6.50068824,6.26932181 6.88212353,5.98418085 L6.95148235,5.91422606 L3.70025882,4.83343617 L4.78055882,8.08637234 L4.85167647,8.01641755 L4.85167647,8.01641755 Z" id="Shape"></path>
                    </g>
                </g>
            </g>
        </g>
    </g>
</svg>