<?xml version="1.0" encoding="UTF-8" standalone="no"?>
<svg width="23px" height="23px" viewBox="0 0 23 23" version="1.1" xmlns="http://www.w3.org/2000/svg" xmlns:xlink="http://www.w3.org/1999/xlink">
    <!-- Generator: Sketch 3.8.3 (29802) - http://www.bohemiancoding.com/sketch -->
    <title>settings</title>
    <desc>Created with Sketch.</desc>
    <defs></defs>
    <g id="Page-1" stroke="none" stroke-width="1" fill="none" fill-rule="evenodd">
        <g id="Symphony-Dashboard" transform="translate(-812.000000, -23.000000)" fill="#FFFFFF">
            <g id="Group-4" transform="translate(812.000000, 23.000000)">
                <g id="settings">
                    <g id="Capa_1">
                        <g id="Group">
                            <path d="M21.8091858,9.08000626 L20.1958246,8.80631106 C20.0277662,8.26372234 19.811691,7.74034029 19.5475992,7.2409666 L20.4983299,5.91090397 C20.9016701,5.34430689 20.8392484,4.571238 20.3446764,4.08146764 L18.9137787,2.65056994 C18.6448852,2.38167641 18.2895616,2.23282463 17.9102296,2.23282463 C17.6125261,2.23282463 17.3292276,2.32405637 17.0891441,2.49691649 L15.7542797,3.44764718 C15.2356994,3.17395198 14.6931106,2.94827349 14.1313152,2.78021503 L13.8624217,1.18606054 C13.7471816,0.499421712 13.1565762,4.80167015e-05 12.460334,4.80167015e-05 L10.4388309,4.80167015e-05 C9.74258873,4.80167015e-05 9.1519833,0.499421712 9.03674322,1.18606054 L8.75824635,2.81862839 C8.22045929,2.98668685 7.69707724,3.20756367 7.19770355,3.4764572 L5.87724426,2.52572651 C5.63716075,2.35286639 5.34906054,2.26163466 5.05135699,2.26163466 C4.67202505,2.26163466 4.31189979,2.41048643 4.04780793,2.67937996 L2.61210856,4.11027766 C2.1223382,4.60004802 2.05511482,5.37311691 2.45845511,5.93971399 L3.41878914,7.2889833 C3.15469729,7.79315866 2.9434238,8.31654071 2.78016701,8.85912944 L1.18601253,9.12802296 C0.499373695,9.24326305 0,9.83386848 0,10.5301106 L0,12.5516138 C0,13.2478559 0.499373695,13.8384614 1.18601253,13.9537015 L2.81858038,14.2321983 C2.98663883,14.7699854 3.20751566,15.2933674 3.47640919,15.7927411 L2.53048017,17.1083987 C2.12713987,17.6749958 2.18956159,18.4480647 2.68413361,18.9378351 L4.11503132,20.3687328 C4.38392484,20.6376263 4.73924843,20.7864781 5.11858038,20.7864781 C5.41628392,20.7864781 5.69958246,20.6952463 5.93966597,20.5223862 L7.28893528,19.5620522 C7.77390397,19.8165407 8.282881,20.0230125 8.80626305,20.1862693 L9.07515658,21.7996305 C9.19039666,22.4862693 9.78100209,22.985643 10.4772443,22.985643 L12.5035491,22.985643 C13.1997912,22.985643 13.7903967,22.4862693 13.9056367,21.7996305 L14.1793319,20.1862693 C14.7219207,20.0182109 15.2453027,19.8021357 15.7446764,19.5380438 L17.074739,20.4887745 C17.3148225,20.6616347 17.6029228,20.7528664 17.9006263,20.7528664 L17.9006263,20.7528664 C18.2799582,20.7528664 18.6352818,20.6040146 18.9041754,20.3351211 L20.3350731,18.9042234 C20.8248434,18.414453 20.8920668,17.6413841 20.4887265,17.0747871 L19.5379958,15.7399228 C19.8020877,15.2357474 20.0229645,14.7123653 20.1862213,14.1745783 L21.7995825,13.9056848 C22.4862213,13.7904447 22.985595,13.1998392 22.985595,12.5035971 L22.985595,10.4820939 C22.9951983,9.78585177 22.4958246,9.19524635 21.8091858,9.08000626 L21.8091858,9.08000626 Z M21.6987474,12.5035971 C21.6987474,12.5660188 21.6555324,12.6188372 21.5931106,12.6284405 L19.5764092,12.9645574 C19.3219207,13.0077724 19.1202505,13.1950376 19.0578288,13.4399228 C18.8753653,14.1457683 18.5968685,14.8228038 18.2223382,15.4518225 C18.0926931,15.6726994 18.1022965,15.9463946 18.2511482,16.1576681 L19.4371608,17.8286493 C19.4707724,17.876666 19.4659708,17.948691 19.4227557,17.9919061 L17.991858,19.4228038 C17.9582463,19.4564154 17.9246347,19.4612171 17.9006263,19.4612171 C17.8718163,19.4612171 17.8478079,19.4516138 17.8286013,19.4372088 L16.1624217,18.2511962 C15.9559499,18.1023445 15.677453,18.0927411 15.4565762,18.2223862 C14.8275574,18.5969165 14.1505219,18.8754134 13.4446764,19.0578768 C13.1949896,19.1202985 13.0077244,19.3267704 12.9693111,19.5764572 L12.6283925,21.5931587 C12.6187891,21.6555804 12.5659708,21.6987954 12.5035491,21.6987954 L10.4820459,21.6987954 C10.4196242,21.6987954 10.3668058,21.6555804 10.3572025,21.5931587 L10.0210856,19.5764572 C9.97787056,19.3219687 9.79060543,19.1202985 9.54572025,19.0578768 C8.85908142,18.880215 8.19645094,18.6065198 7.57703549,18.2511962 C7.47620042,18.1935762 7.36096033,18.1647662 7.25052192,18.1647662 C7.12087683,18.1647662 6.98643006,18.2031795 6.87599165,18.2848079 L5.1954071,19.4804238 C5.17139875,19.4948288 5.1473904,19.5044322 5.12338205,19.5044322 C5.10417537,19.5044322 5.065762,19.4996305 5.03215031,19.4660188 L3.60125261,18.0351211 C3.55803758,17.9919061 3.55323591,17.9246827 3.5868476,17.8718643 L4.76805846,16.2152881 C4.91691023,16.0040146 4.92651357,15.7255177 4.79686848,15.5046409 C4.4223382,14.8804238 4.134238,14.2033883 3.95177453,13.4975428 C3.88455115,13.2526576 3.682881,13.0653925 3.43319415,13.0221775 L1.40208768,12.6764572 C1.33966597,12.6668539 1.29645094,12.6140355 1.29645094,12.5516138 L1.29645094,10.5301106 C1.29645094,10.4676889 1.33966597,10.4148706 1.40208768,10.4052672 L3.40438413,10.0691503 C3.65887265,10.0259353 3.86534447,9.83867015 3.92776618,9.5889833 C4.10542797,8.88313779 4.37912317,8.20130063 4.74885177,7.57228184 C4.87849687,7.35140501 4.86409186,7.07770981 4.71524008,6.871238 L3.51962422,5.19065344 C3.48601253,5.14263674 3.4908142,5.07061169 3.53402923,5.02739666 L4.96492693,3.59649896 C4.99853862,3.56288727 5.03215031,3.55808559 5.05615866,3.55808559 C5.08496868,3.55808559 5.10897704,3.56768894 5.12818372,3.58209395 L6.78475992,4.7633048 C6.9960334,4.91215658 7.27453027,4.92175992 7.4954071,4.79211482 C8.11962422,4.41758455 8.79665971,4.12948434 9.50250522,3.94702088 C9.7473904,3.87979749 9.93465553,3.67812735 9.97787056,3.4284405 L10.3235908,1.39733403 C10.3331942,1.33491232 10.3860125,1.29169729 10.4484342,1.29169729 L12.4699374,1.29169729 C12.5323591,1.29169729 12.5851775,1.33491232 12.5947808,1.39733403 L12.9308977,3.39963048 C12.9741127,3.654119 13.1613779,3.86059081 13.4110647,3.92301253 C14.1361169,4.10547599 14.8275574,4.38877453 15.4709812,4.76810647 C15.691858,4.89775157 15.9655532,4.88814823 16.1768267,4.73929645 L17.8334029,3.54848225 C17.8574113,3.53407724 17.8814196,3.5244739 17.905428,3.5244739 C17.9246347,3.5244739 17.963048,3.52927557 17.9966597,3.56288727 L19.4275574,4.99378497 C19.4707724,5.037 19.4755741,5.10422338 19.4419624,5.15704175 L18.2559499,6.82322129 C18.1070981,7.02969311 18.0974948,7.30818998 18.2271399,7.52906681 C18.6016701,8.15808559 18.880167,8.83512109 19.0626305,9.5409666 C19.1250522,9.79065344 19.331524,9.97791858 19.5812109,10.0163319 L21.5979123,10.3572505 C21.660334,10.3668539 21.7035491,10.4196722 21.7035491,10.4820939 L21.7035491,12.5035971 L21.6987474,12.5035971 L21.6987474,12.5035971 Z" id="Shape"></path>
                            <path d="M11.4951983,6.53031942 C8.75824635,6.53031942 6.53507307,8.75349269 6.53507307,11.4904447 C6.53507307,14.2273967 8.75824635,16.4505699 11.4951983,16.4505699 C14.2321503,16.4505699 16.4553236,14.2273967 16.4553236,11.4904447 C16.4553236,8.75349269 14.2321503,6.53031942 11.4951983,6.53031942 L11.4951983,6.53031942 Z M11.4951983,15.154119 C9.4736952,15.154119 7.83152401,13.5119478 7.83152401,11.4904447 C7.83152401,9.46894154 9.4736952,7.82677035 11.4951983,7.82677035 C13.5167015,7.82677035 15.1588727,9.46894154 15.1588727,11.4904447 C15.1588727,13.5119478 13.5167015,15.154119 11.4951983,15.154119 L11.4951983,15.154119 Z" id="Shape"></path>
                        </g>
                    </g>
                </g>
            </g>
        </g>
    </g>
</svg>