<?xml version="1.0" encoding="UTF-8" standalone="no"?>
<svg width="28px" height="27px" viewBox="0 0 28 27" version="1.1" xmlns="http://www.w3.org/2000/svg" xmlns:xlink="http://www.w3.org/1999/xlink">
    <!-- Generator: Sketch 3.8.3 (29802) - http://www.bohemiancoding.com/sketch -->
    <title>chart</title>
    <desc>Created with Sketch.</desc>
    <defs></defs>
    <g id="Page-1" stroke="none" stroke-width="1" fill="none" fill-rule="evenodd">
        <g id="Symphony-Dashboard" transform="translate(-539.000000, -21.000000)" fill="#FFFFFF">
            <g id="Group-5" transform="translate(539.000000, 21.000000)">
                <g id="chart" transform="translate(0.500000, 0.000000)">
                    <g id="Group">
                        <path d="M7.984125,12.7722273 C7.29807955,12.7722273 6.73977273,13.3304318 6.73977273,14.0164773 L6.73977273,19.0960568 C6.73977273,19.7822045 7.29797727,20.3404091 7.984125,20.3404091 L9.51821591,20.3404091 C10.2042614,20.3404091 10.7625682,19.7822045 10.7625682,19.0960568 L10.7625682,14.0164773 C10.7625682,13.3304318 10.2043636,12.7722273 9.51821591,12.7722273 L7.984125,12.7722273 L7.984125,12.7722273 Z M9.53529545,19.0960568 C9.53529545,19.1054659 9.527625,19.1131364 9.51821591,19.1131364 L7.984125,19.1131364 C7.97471591,19.1131364 7.96704545,19.1054659 7.96704545,19.0960568 L7.96704545,14.0164773 C7.96704545,14.0070682 7.97471591,13.9993977 7.984125,13.9993977 L9.51821591,13.9993977 C9.527625,13.9993977 9.53529545,14.0070682 9.53529545,14.0164773 L9.53529545,19.0960568 L9.53529545,19.0960568 Z" id="Shape"></path>
                        <path d="M14.2227614,9.97670455 L12.6886705,9.97670455 C12.002625,9.97670455 11.4443182,10.5349091 11.4443182,11.2210568 L11.4443182,19.0960568 C11.4443182,19.7822045 12.0025227,20.3404091 12.6886705,20.3404091 L14.2227614,20.3404091 C14.9088068,20.3404091 15.4671136,19.7822045 15.4671136,19.0960568 L15.4671136,11.2210568 C15.4671136,10.5349091 14.9089091,9.97670455 14.2227614,9.97670455 L14.2227614,9.97670455 Z M14.2398409,19.0960568 C14.2398409,19.1054659 14.2321705,19.1131364 14.2227614,19.1131364 L12.6886705,19.1131364 C12.6792614,19.1131364 12.6715909,19.1054659 12.6715909,19.0960568 L12.6715909,11.2210568 C12.6715909,11.2116477 12.6792614,11.2039773 12.6886705,11.2039773 L14.2227614,11.2039773 C14.2321705,11.2039773 14.2398409,11.2116477 14.2398409,11.2210568 L14.2398409,19.0960568 L14.2398409,19.0960568 Z" id="Shape"></path>
                        <path d="M17.3932159,6.56764773 C16.7071705,6.56764773 16.1488636,7.12585227 16.1488636,7.812 L16.1488636,19.0960568 C16.1488636,19.7822045 16.7070682,20.3404091 17.3932159,20.3404091 L18.9273068,20.3404091 C19.6133523,20.3404091 20.1716591,19.7822045 20.1716591,19.0960568 L20.1716591,7.812 C20.1716591,7.12585227 19.6134545,6.56764773 18.9273068,6.56764773 L17.3932159,6.56764773 L17.3932159,6.56764773 Z M18.9443864,19.0960568 C18.9443864,19.1054659 18.9367159,19.1131364 18.9273068,19.1131364 L17.3932159,19.1131364 C17.3838068,19.1131364 17.3761364,19.1054659 17.3761364,19.0960568 L17.3761364,7.812 C17.3761364,7.80259091 17.3838068,7.79492045 17.3932159,7.79492045 L18.9273068,7.79492045 C18.9367159,7.79492045 18.9443864,7.80259091 18.9443864,7.812 L18.9443864,19.0960568 L18.9443864,19.0960568 Z" id="Shape"></path>
                        <path d="M26.6389773,10.7675795 C26.571375,10.4355 26.2476818,10.2213409 25.9151932,10.2887386 C25.5831136,10.3563409 25.36875,10.6804432 25.4363523,11.0125227 C26.3861591,15.6770795 24.5190682,20.5095682 20.6798523,23.3238068 C18.0620795,25.2428523 14.8327159,26.0240114 11.5856591,25.524 C8.33890909,25.0238864 5.49409091,23.3067273 3.57514773,20.6889545 C1.65630682,18.0711818 0.874943182,14.8415114 1.37505682,11.5947614 C1.87517045,8.34801136 3.59232955,5.50319318 6.21,3.58435227 C8.82777273,1.66530682 12.05775,0.884045455 15.3041932,1.38415909 C18.5068636,1.87752273 21.3179318,3.55571591 23.2355455,6.11386364 L22.458375,5.96413636 C22.1258864,5.90021591 21.8038295,6.11775 21.7398068,6.45064773 C21.6756818,6.78344318 21.8935227,7.10519318 22.2263182,7.16921591 L24.5050568,7.60817045 C24.5435114,7.61563636 24.582375,7.61921591 24.6211364,7.61921591 C24.7428409,7.61921591 24.8629091,7.58301136 24.9651818,7.51377273 C25.099875,7.42244318 25.1929432,7.28151136 25.2237273,7.12165909 L25.6626818,4.84292045 C25.7268068,4.510125 25.5089659,4.188375 25.1761705,4.12435227 C24.8432727,4.06022727 24.521625,4.27806818 24.4576023,4.61086364 L24.2911023,5.47547727 C22.1785568,2.60365909 19.0544318,0.720102273 15.49125,0.171204545 C11.9201932,-0.379227273 8.36652273,0.481704545 5.484375,2.59445455 C2.60232955,4.70710227 0.712125,7.83715909 0.162,11.4079091 C-0.388022727,14.9786591 0.472602273,18.5323295 2.58525,21.4144773 C4.698,24.296625 7.82805682,26.1868295 11.3987045,26.7368523 C12.1026477,26.8453636 12.805875,26.8988523 13.5035795,26.8988523 C16.3445114,26.8988523 19.0914545,26.0096932 21.405375,24.3135 C25.6296477,21.2169886 27.684,15.8999318 26.6389773,10.7675795 L26.6389773,10.7675795 Z" id="Shape"></path>
                    </g>
                </g>
            </g>
        </g>
    </g>
</svg>