<?xml version="1.0" encoding="UTF-8" standalone="no"?>
<svg width="38px" height="38px" viewBox="0 0 38 38" version="1.1" xmlns="http://www.w3.org/2000/svg" xmlns:xlink="http://www.w3.org/1999/xlink">
    <!-- Generator: Sketch 3.8.3 (29802) - http://www.bohemiancoding.com/sketch -->
    <title>user</title>
    <desc>Created with Sketch.</desc>
    <defs></defs>
    <g id="Page-1" stroke="none" stroke-width="1" fill="none" fill-rule="evenodd">
        <g id="Symphony-Dashboard" transform="translate(-960.000000, -15.000000)">
            <g id="user" transform="translate(960.000000, 15.000000)">
                <g id="Capa_1">
                    <path d="M13.3451698,29.792 L7.676,32.8843396 C7.34332075,33.0657358 7.04433962,33.288717 6.76615094,33.5317736 C10.071434,36.3186792 14.3381887,38 19,38 C23.6273962,38 27.8669057,36.3437736 31.1628679,33.5948679 C30.8588679,33.3381887 30.5290566,33.1073208 30.1633962,32.9252075 L24.092717,29.8902264 C23.3083396,29.4980377 22.8129057,28.6964528 22.8129057,27.8195849 L22.8129057,25.4377736 C22.9835472,25.2434717 23.178566,24.9939623 23.3872075,24.699283 C24.2146038,23.5306038 24.8405283,22.2450566 25.2743019,20.8964151 C26.0529434,20.6562264 26.6265283,19.9370943 26.6265283,19.0824528 L26.6265283,16.5400377 C26.6265283,15.9807925 26.3777358,15.4810566 25.991283,15.1311698 L25.991283,11.4559245 C25.991283,11.4559245 26.7462642,5.73656604 19.000717,5.73656604 C11.2551698,5.73656604 12.0101509,11.4559245 12.0101509,11.4559245 L12.0101509,15.1311698 C11.6229811,15.4810566 11.3749057,15.9807925 11.3749057,16.5400377 L11.3749057,19.0824528 C11.3749057,19.7521132 11.7269434,20.3414717 12.2539245,20.6820377 C12.8891698,23.447434 14.552566,25.4377736 14.552566,25.4377736 L14.552566,27.7607925 C14.5518491,28.6068302 14.0886792,29.3861887 13.3451698,29.792 L13.3451698,29.792 Z" id="Shape" fill="#9A9A9A"></path>
                    <path d="M19.3247925,0.00286792453 C8.83320755,-0.176377358 0.182113208,8.18362264 0.00286792453,18.6752075 C-0.0989433962,24.624 2.55245283,29.9705283 6.77403774,33.5260377 C7.05007547,33.2851321 7.34618868,33.0643019 7.67528302,32.8850566 L13.3444528,29.792717 C14.0879623,29.3869057 14.5511321,28.6075472 14.5511321,27.7600755 L14.5511321,25.4370566 C14.5511321,25.4370566 12.8870189,23.446717 12.2524906,20.6813208 C11.7262264,20.3407547 11.3734717,19.7521132 11.3734717,19.0817358 L11.3734717,16.5393208 C11.3734717,15.9800755 11.6222642,15.4803396 12.008717,15.1304528 L12.008717,11.4552075 C12.008717,11.4552075 11.2537358,5.73584906 18.999283,5.73584906 C26.7448302,5.73584906 25.9898491,11.4552075 25.9898491,11.4552075 L25.9898491,15.1304528 C26.3770189,15.4803396 26.6250943,15.9800755 26.6250943,16.5393208 L26.6250943,19.0817358 C26.6250943,19.9363774 26.0515094,20.6555094 25.2728679,20.8956981 C24.8390943,22.2443396 24.2131698,23.5298868 23.3857736,24.698566 C23.1771321,24.9932453 22.9821132,25.2427547 22.8114717,25.4370566 L22.8114717,27.8188679 C22.8114717,28.6957358 23.3069057,29.4980377 24.091283,29.8895094 L30.1619623,32.9244906 C30.5261887,33.1066038 30.855283,33.3367547 31.158566,33.592717 C35.2525283,30.1784528 37.8974717,25.0735472 37.9956981,19.3247925 C38.1763774,8.83320755 29.8170943,0.182113208 19.3247925,0.00286792453 L19.3247925,0.00286792453 Z" id="Shape" fill="#000000"></path>
                </g>
            </g>
        </g>
    </g>
</svg>